<svg width="360" height="41" viewBox="0 0 360 41" fill="none" xmlns="http://www.w3.org/2000/svg">
<path d="M1440 163.55H1332.89V2.30347H1440V20.7316H1353.62V71.4091H1430.79V89.8373H1353.62V145.122H1440V163.55Z" fill="white" style="mix-blend-mode:exclusion"/>
<path d="M1314.07 163.55H1206.96V2.30347H1314.07V20.7316H1227.69V71.4091H1304.86V89.8373H1227.69V145.122H1314.07V163.55Z" fill="white" style="mix-blend-mode:exclusion"/>
<path d="M1193.88 163.55H1091.6V2.30347H1112.33V145.122H1193.88V163.55Z" fill="white" style="mix-blend-mode:exclusion"/>
<path d="M936.284 163.55H915.553V2.30347H936.284V80.8536L1007.69 2.30347H1033.49L960.241 81.3143L1035.8 163.55H1008.38L936.284 83.6178V163.55Z" fill="white" style="mix-blend-mode:exclusion"/>
<path d="M891.564 163.55H870.832V2.30347H891.564V163.55Z" fill="white" style="mix-blend-mode:exclusion"/>
<path d="M793.362 165.854C766.871 165.854 747.061 152.723 738.538 130.149L757.427 123.238C763.646 139.363 774.934 147.425 793.362 147.425C814.094 147.425 826.072 135.217 826.072 112.181V2.30347H846.804V112.873C846.804 145.813 826.993 165.854 793.362 165.854Z" fill="white" style="mix-blend-mode:exclusion"/>
<path d="M667.834 165.854C622.224 165.854 592.509 132.453 592.509 82.9268C592.509 33.4011 622.224 0 665.07 0C694.094 0 718.051 13.3604 729.799 43.0759L710.449 50.2168C701.465 27.6423 686.032 17.7371 665.07 17.7371C634.203 17.7371 613.241 42.3848 613.241 82.9268C613.241 123.469 633.512 148.116 667.834 148.116C683.959 148.116 698.471 141.206 707.685 131.07V97.439L668.986 95.5962V79.0108H728.417V137.52C714.595 156.409 692.482 165.854 667.834 165.854Z" fill="white" style="mix-blend-mode:exclusion"/>
<path d="M466.537 163.55H445.806V2.30347H468.841L553.61 131.301H554.993C554.302 114.255 554.071 99.5121 554.071 83.6178V2.30347H574.803V163.55H551.768L466.768 34.5528H465.616C466.307 51.8292 466.537 66.111 466.537 82.2357V163.55Z" fill="white" style="mix-blend-mode:exclusion"/>
<path d="M359.143 165.854C324.82 165.854 296.257 144.661 296.257 98.8211V2.30347H316.989V98.8211C316.989 134.526 337.029 147.425 359.143 147.425C381.257 147.425 401.067 134.526 401.067 98.8211V2.30347H421.799V98.8211C421.799 144.661 393.465 165.854 359.143 165.854Z" fill="white" style="mix-blend-mode:exclusion"/>
<path d="M206.739 165.854C164.584 165.854 134.639 132.453 134.639 82.9268C134.639 33.4011 164.584 0 206.739 0C248.893 0 278.609 33.1707 278.609 82.9268C278.609 132.683 248.893 165.854 206.739 165.854ZM206.739 147.425C237.606 147.425 257.877 123.238 257.877 82.9268C257.877 42.6152 237.606 18.4282 206.739 18.4282C175.872 18.4282 155.37 42.6152 155.37 82.9268C155.37 123.238 175.872 147.425 206.739 147.425Z" fill="white" style="mix-blend-mode:exclusion"/>
<path d="M78.5501 163.55H57.8184V101.125L0 2.30347H23.7263L67.9539 81.3143H69.1057L112.642 2.30347H135.908L78.5501 100.894V163.55Z" fill="white" style="mix-blend-mode:exclusion"/>
</svg>
